<?xml version="1.0" encoding="utf-8"?>
<!-- Generator: Adobe Illustrator 23.0.0, SVG Export Plug-In . SVG Version: 6.00 Build 0)  -->
<svg version="1.1" id="Camada_1" xmlns="http://www.w3.org/2000/svg" xmlns:xlink="http://www.w3.org/1999/xlink" x="0px" y="0px"
	 viewBox="0 0 520 520" style="enable-background:new 0 0 520 520;" xml:space="preserve">
<style type="text/css">
	.st0{fill-rule:evenodd;clip-rule:evenodd;fill:#FFFFFF;}
	.st1{fill:#FFFFFF;stroke:#FFFFFF;stroke-miterlimit:10;}
</style>
<path class="st0" d="M280.6,205.4c1.6,4.3,8,10.1,4.1,15.4c-2,2.7-15,9.3-19.8,12.4c-13.5,9-13.1-7.1-18.7-9
	c-5.7-0.7-19.8,3.7-27.9,4.2c-3.9,0.2-11.2,0-13.6,2.2c-5.3,4.9,1.9,17.8-15.8,13.2c-7.5-2-21.1-3.9-23.5-8.6
	c-1.9-3.9,1.7-9.4,1.4-14.1c-2.5-4.7-8-6.3-12.5-9.4c-6.3-4.3-8.1-6.4-12.3-9.4c-0.4,9.7-1.1,39.3,0.7,47.2
	c2.6,11.6,13.8,21.5,26.5,21.5h179.4c16.1,0,27.5-12.7,27.5-29.2V66.6c-0.1-18.8-12.3-29.7-30.7-29.7h-83.7c1.6,1.5,3.8,2.5,5.8,3.9
	l16.8,13.6c5.3,4.7,8.5,0.8,13.2-1.8c7.3-4,9.6,2,12.2,6.2c2.8,4.5,4.9,8.2,7.5,12.5c5.8,9.9,4.8,11.2-5.8,17.1
	c-6.2,3.4,0,13.5,1.2,24.9c0.5,4.4,0.4,15.1,2,18.1c2.3,4.2,9.7,2.2,13.5,6.5c3.5,4,0.2,11.1-0.9,15.9c-0.9,3.6-3,13.6-4.8,15.8
	c-7.3,9-13.1-6.9-21.3,5.4c-5.7,8.5-5.1,8.5-12.3,17.9c-2.4,3.2-8.2,6.9-8.4,12.3"/>
<path class="st1" d="M390.1,352.6c2.4,34,21.8,51.7,58,50.4c34.4-1.2,51.6-22.3,50.7-57.6c-0.4-16.8-7-31.1-16-38.4
	c-11.3-9.1-22.8-12.9-42-12.3C408,295.9,387.7,318.1,390.1,352.6 M422.6,355.1c-3.9-40.6,25.5-40.4,36-30.6c9.9,9.2,9,31.4,5.2,41.5
	c-5.5,14.6-23.4,16.3-33.6,7.5C425.2,369.2,423.5,363.6,422.6,355.1L422.6,355.1z"/>
<path class="st0" d="M158,169c5.1,8.5,21.9,20.5,37.3,23.7c20.8,4.4,33.9,0.8,50.3-7.4c9.1-4.6,18.2-14.2,23.2-22.3
	c9.2-15,13.1-31.8,9.6-49.7c-0.9-4.5-2.7-8.7-3.4-12.5c-37.1,6-64.1,20.4-91,41.6c-1.2,0.8-2.4,1.7-3.5,2.6
	c-5.1,5-12.4,11.4-17.3,17.3C161.3,164.5,159.9,166.6,158,169"/>
<path class="st1" d="M361.5,359.3c1.6-1.1,4.9-1.8,7.3-2.9c6.9-3.4,12.1-8.3,14.3-16.6c3.5-13,0.6-24.4-6.3-32.3
	c-11.1-12.9-31.3-11.1-50.6-11.1c-5.6,0-14.6-0.5-19.8,0.2l0.2,104.9l26.7-0.1l0.2-40.2c3.2,3,19.9,35.3,24.3,40.3h31.4
	c-0.3-2.5-17.1-26.1-20.8-31.6C366.5,367.2,362.6,362.1,361.5,359.3 M333.4,318.6c13.1-0.1,22.8-0.1,22.9,14
	c0.1,13.1-10.8,13.8-23,13.4L333.4,318.6z"/>
<path class="st1" d="M117.3,364H85.3c-1.6,4.3-2.8,6.7-9.4,8.1c-4.8,1-10.7,0.2-14.3-2.1c-16-10.4-14.2-60,14.9-51.9
	c5,1.4,8,3.6,9.1,8.7H117c-1.6-11.4-8.3-21.9-17.9-27.7c-19.8-11.7-58.7-10.1-73.1,17.4c-4.7,9-6.4,17.6-6.4,28.2
	c-0.2,26.7,13,47.2,39.7,51.9C84.4,401,111.9,392.1,117.3,364"/>
<path class="st1" d="M262.4,363.9c-1.3,4.7-4.2,7.2-9.4,8.2c-16.6,3.4-24.4-9.8-24.1-28c0.6-34.6,25.6-27.9,31.1-22.9
	c1.6,1.5,1.5,3.2,3.1,5.5h31c-0.7-5.3-4-12.9-6.5-16.8c-9.7-15.6-32.7-19.4-51.1-16.7c-44.9,6.6-48,63.3-29.2,86.7
	c20.1,25.1,65.6,22.3,80.3,0.1c3.3-5,5.5-10.5,6.7-16.3L262.4,363.9z"/>
<path class="st1" d="M169.8,354.5c10.4-2.1,17.9-8.7,20.8-18.1c3.3-10.6,1.1-22.1-5.8-30.7c-5.7-7.3-15.8-9.9-28.2-10.4
	c-12.8-0.5-26-0.1-38.9-0.2v99.7h25.5l0.1-38.6l11.6,19.4c3.2,5.3,9,14.1,10.9,19.2l30.7-0.1c-1.1-3.2-4.8-7.1-6.7-10.4
	c-1-1.8-2.2-3.1-3.5-5l-9.9-14.9C173.9,360.8,171.8,358.3,169.8,354.5 M143.2,316c12.1-0.2,22,0.3,22,13.6
	c0,12.6-10.4,12.5-21.9,12.6L143.2,316z"/>
<path class="st0" d="M147.4,150.6l8.5-14.3c4.4-6.6,15.8-19.6,21.9-24.2l13-10.1c31.4-22.2,54.7-26.4,61.3-30.5
	c-21.3-17.9-60.6-18.3-82.8,0.5c-8.8,7.4-18.2,17.2-23.1,32.1c-2.5,7.6-3.8,15.6-3.6,23.6C142.8,134.1,144.2,146.3,147.4,150.6"/>
<g>
	<path class="st1" d="M34,439.3h-4.3v6.8c0,1-0.2,1.7-0.7,2.2s-1,0.8-1.7,0.8c-0.7,0-1.3-0.3-1.7-0.7c-0.4-0.5-0.6-1.2-0.6-2.2
		v-18.5c0-1.1,0.2-1.8,0.7-2.3c0.5-0.5,1.2-0.7,2.3-0.7h6c1.8,0,3.2,0.1,4.1,0.4c1,0.3,1.8,0.7,2.5,1.4c0.7,0.6,1.2,1.4,1.6,2.3
		c0.4,0.9,0.5,1.9,0.5,3.1c0,2.4-0.7,4.3-2.2,5.5C39.1,438.6,36.9,439.3,34,439.3z M32.9,428.3h-3.2v7.3h3.2c1.1,0,2-0.1,2.8-0.4
		s1.3-0.6,1.7-1.2c0.4-0.5,0.6-1.3,0.6-2.1c0-1.1-0.3-1.9-0.9-2.6C36.4,428.6,35,428.3,32.9,428.3z"/>
	<path class="st1" d="M56.8,424.2c2.4,0,4.5,0.5,6.2,1.5s3,2.4,3.9,4.3s1.3,4,1.3,6.5c0,1.9-0.2,3.5-0.7,5c-0.5,1.5-1.2,2.8-2.2,3.9
		c-1,1.1-2.2,2-3.6,2.5s-3,0.9-4.9,0.9s-3.4-0.3-4.9-0.9c-1.4-0.6-2.6-1.5-3.6-2.6s-1.7-2.4-2.2-4s-0.7-3.2-0.7-5
		c0-1.8,0.3-3.5,0.8-5.1c0.5-1.5,1.3-2.8,2.2-3.9c1-1.1,2.2-1.9,3.5-2.5C53.5,424.5,55.1,424.2,56.8,424.2z M63.5,436.5
		c0-1.8-0.3-3.3-0.8-4.6s-1.3-2.3-2.3-2.9c-1-0.7-2.2-1-3.5-1c-0.9,0-1.8,0.2-2.6,0.5s-1.5,0.9-2.1,1.6c-0.6,0.7-1,1.6-1.4,2.7
		c-0.3,1.1-0.5,2.3-0.5,3.6c0,1.4,0.2,2.6,0.5,3.7s0.8,2,1.4,2.7c0.6,0.7,1.3,1.3,2.1,1.6c0.8,0.4,1.7,0.5,2.6,0.5
		c1.2,0,2.3-0.3,3.3-0.9s1.8-1.6,2.4-2.9C63.2,440,63.5,438.4,63.5,436.5z"/>
	<path class="st1" d="M78.6,438.3H77v7.7c0,1-0.2,1.8-0.7,2.2c-0.4,0.5-1,0.7-1.7,0.7c-0.8,0-1.3-0.3-1.7-0.8
		c-0.4-0.5-0.6-1.2-0.6-2.2v-18.4c0-1,0.2-1.8,0.7-2.3s1.2-0.7,2.2-0.7h7.7c1.1,0,2,0,2.7,0.1c0.8,0.1,1.4,0.3,2,0.6
		c0.7,0.3,1.4,0.8,1.9,1.4s1,1.3,1.3,2c0.3,0.8,0.4,1.6,0.4,2.5c0,1.8-0.5,3.2-1.5,4.3c-1,1.1-2.5,1.8-4.4,2.3
		c0.8,0.5,1.6,1.1,2.4,2c0.8,0.9,1.4,1.8,2,2.9s1.1,1.9,1.4,2.7s0.5,1.4,0.5,1.7c0,0.3-0.1,0.6-0.3,0.9c-0.2,0.3-0.5,0.6-0.8,0.7
		c-0.3,0.2-0.7,0.3-1.2,0.3c-0.5,0-1-0.1-1.3-0.4c-0.4-0.3-0.7-0.6-0.9-1s-0.6-1-1.1-1.7l-1.9-3.2c-0.7-1.2-1.3-2.1-1.8-2.7
		s-1.1-1-1.6-1.3C80.2,438.5,79.5,438.3,78.6,438.3z M81.3,428.3H77v6.6h4.2c1.1,0,2.1-0.1,2.8-0.3c0.8-0.2,1.4-0.5,1.8-1
		c0.4-0.5,0.6-1.1,0.6-2c0-0.7-0.2-1.3-0.5-1.8c-0.3-0.5-0.8-0.9-1.4-1.1C84,428.4,82.9,428.3,81.3,428.3z"/>
	<path class="st1" d="M109.1,428.6H104V446c0,1-0.2,1.8-0.7,2.2s-1,0.7-1.7,0.7c-0.7,0-1.3-0.3-1.7-0.7c-0.4-0.5-0.7-1.2-0.7-2.2
		v-17.4h-5.1c-0.8,0-1.4-0.2-1.8-0.5c-0.4-0.4-0.6-0.9-0.6-1.5c0-0.6,0.2-1.1,0.6-1.5c0.4-0.4,1-0.5,1.8-0.5h14.9
		c0.8,0,1.4,0.2,1.8,0.6c0.4,0.4,0.6,0.9,0.6,1.5s-0.2,1.1-0.6,1.5C110.5,428.5,109.9,428.6,109.1,428.6z"/>
	<path class="st1" d="M127.1,445.9l-1.1-3h-9.4l-1.1,3.1c-0.4,1.2-0.8,2-1.1,2.4c-0.3,0.4-0.8,0.6-1.5,0.6c-0.6,0-1.1-0.2-1.6-0.7
		c-0.4-0.5-0.7-1-0.7-1.5c0-0.3,0.1-0.7,0.2-1s0.3-0.8,0.5-1.5l5.9-15.6c0.2-0.5,0.4-1,0.6-1.6c0.2-0.6,0.5-1.1,0.8-1.6
		c0.3-0.4,0.6-0.8,1.1-1c0.4-0.3,1-0.4,1.6-0.4c0.7,0,1.2,0.1,1.6,0.4c0.4,0.3,0.8,0.6,1.1,1s0.5,0.8,0.7,1.3s0.4,1.1,0.7,1.9
		l6.1,15.5c0.5,1.2,0.7,2,0.7,2.6c0,0.6-0.2,1.1-0.7,1.5c-0.4,0.5-1,0.7-1.6,0.7c-0.4,0-0.7-0.1-0.9-0.2c-0.3-0.1-0.5-0.3-0.7-0.6
		c-0.2-0.2-0.4-0.6-0.6-1.1S127.3,446.3,127.1,445.9z M117.8,439.2h6.9l-3.5-9.9L117.8,439.2z"/>
	<path class="st1" d="M140.2,427.2v17.4h9.5c0.8,0,1.3,0.2,1.8,0.6s0.6,0.9,0.6,1.4c0,0.6-0.2,1.1-0.6,1.4c-0.4,0.4-1,0.5-1.8,0.5
		h-11.4c-1,0-1.8-0.2-2.2-0.7c-0.4-0.5-0.7-1.2-0.7-2.3v-18.5c0-1,0.2-1.7,0.6-2.2s1-0.7,1.7-0.7c0.7,0,1.3,0.2,1.7,0.7
		C140,425.4,140.2,426.2,140.2,427.2z"/>
	<path class="st1" d="M166.2,424.6h6.1c1.6,0,3,0.1,4.1,0.5c1.1,0.3,2.2,0.9,3.1,1.7c2.4,2.1,3.6,5.4,3.6,9.7c0,1.4-0.1,2.8-0.4,3.9
		s-0.6,2.3-1.1,3.2c-0.5,1-1.2,1.8-1.9,2.6c-0.6,0.6-1.3,1-2,1.4c-0.7,0.4-1.5,0.6-2.4,0.7s-1.8,0.2-2.9,0.2h-6.1
		c-0.9,0-1.5-0.1-1.9-0.4s-0.7-0.6-0.9-1.1s-0.2-1.1-0.2-1.9v-17.6c0-1,0.2-1.8,0.7-2.3C164.5,424.9,165.2,424.6,166.2,424.6z
		 M168,428.5v16.3h3.6c0.8,0,1.4,0,1.8-0.1c0.4,0,0.9-0.1,1.4-0.3c0.5-0.2,0.9-0.4,1.2-0.7c1.6-1.4,2.4-3.7,2.4-7.1
		c0-2.4-0.3-4.1-1-5.3c-0.7-1.2-1.5-1.9-2.6-2.3c-1-0.3-2.2-0.5-3.7-0.5L168,428.5L168,428.5z"/>
	<path class="st1" d="M232.1,428.6H227V446c0,1-0.2,1.8-0.6,2.2s-1,0.7-1.7,0.7c-0.7,0-1.3-0.3-1.7-0.7s-0.7-1.2-0.7-2.2v-17.4h-5.1
		c-0.8,0-1.4-0.2-1.8-0.5c-0.4-0.4-0.6-0.9-0.6-1.5c0-0.6,0.2-1.1,0.6-1.5c0.4-0.4,1-0.5,1.8-0.5h14.9c0.8,0,1.4,0.2,1.8,0.6
		c0.4,0.4,0.6,0.9,0.6,1.5s-0.2,1.1-0.6,1.5C233.5,428.5,232.9,428.6,232.1,428.6z"/>
	<path class="st1" d="M243.6,438.3H242v7.7c0,1-0.2,1.8-0.6,2.2c-0.4,0.5-1,0.7-1.7,0.7c-0.8,0-1.3-0.3-1.7-0.8s-0.6-1.2-0.6-2.2
		v-18.4c0-1,0.2-1.8,0.7-2.3s1.2-0.7,2.2-0.7h7.6c1.1,0,2,0,2.7,0.1c0.8,0.1,1.4,0.3,2,0.6c0.7,0.3,1.4,0.8,1.9,1.4s1,1.3,1.3,2
		s0.4,1.6,0.4,2.5c0,1.8-0.5,3.2-1.5,4.3s-2.5,1.8-4.4,2.3c0.8,0.5,1.6,1.1,2.4,2c0.8,0.9,1.4,1.8,2,2.9s1.1,1.9,1.4,2.7
		c0.3,0.8,0.5,1.4,0.5,1.7c0,0.3-0.1,0.6-0.3,0.9c-0.2,0.3-0.5,0.6-0.8,0.7s-0.7,0.3-1.2,0.3c-0.5,0-1-0.1-1.3-0.4
		c-0.4-0.3-0.7-0.6-0.9-1s-0.6-1-1.1-1.7l-1.9-3.2c-0.7-1.2-1.3-2.1-1.8-2.7s-1.1-1-1.6-1.3C245.2,438.5,244.5,438.3,243.6,438.3z
		 M246.3,428.3H242v6.6h4.2c1.1,0,2.1-0.1,2.9-0.3c0.8-0.2,1.4-0.5,1.8-1s0.6-1.1,0.6-2c0-0.7-0.2-1.3-0.5-1.8s-0.8-0.9-1.4-1.1
		C249,428.4,247.9,428.3,246.3,428.3z"/>
	<path class="st1" d="M275.5,445.9l-1.1-3H265l-1.1,3.1c-0.4,1.2-0.8,2-1.1,2.4c-0.3,0.4-0.8,0.6-1.5,0.6c-0.6,0-1.1-0.2-1.6-0.7
		c-0.5-0.5-0.7-1-0.7-1.5c0-0.3,0-0.7,0.2-1c0.1-0.4,0.3-0.8,0.5-1.5l5.9-15.6c0.2-0.5,0.4-1,0.6-1.6c0.2-0.6,0.5-1.1,0.8-1.6
		c0.3-0.4,0.6-0.8,1.1-1c0.4-0.3,1-0.4,1.6-0.4c0.6,0,1.2,0.1,1.6,0.4c0.4,0.3,0.8,0.6,1.1,1s0.5,0.8,0.7,1.3s0.4,1.1,0.7,1.9
		l6.1,15.5c0.5,1.2,0.7,2,0.7,2.6c0,0.6-0.2,1.1-0.7,1.5s-1,0.7-1.6,0.7c-0.4,0-0.7-0.1-1-0.2c-0.3-0.1-0.5-0.3-0.7-0.6
		s-0.4-0.6-0.6-1.1S275.6,446.3,275.5,445.9z M266.2,439.2h6.9l-3.5-9.9L266.2,439.2z"/>
	<path class="st1" d="M290.1,427.1l9,14.1V427c0-0.9,0.2-1.6,0.6-2.1c0.4-0.5,0.9-0.7,1.6-0.7c0.7,0,1.2,0.2,1.6,0.7
		s0.6,1.2,0.6,2.1v18.8c0,2.1-0.8,3.1-2.5,3.1c-0.4,0-0.8-0.1-1.1-0.2c-0.3-0.1-0.6-0.3-1-0.6c-0.3-0.3-0.6-0.6-0.8-1
		c-0.3-0.4-0.5-0.7-0.8-1.1l-8.8-14v14c0,0.9-0.2,1.6-0.6,2.1s-0.9,0.7-1.6,0.7c-0.7,0-1.2-0.2-1.6-0.7s-0.6-1.2-0.6-2.1v-18.5
		c0-0.8,0.1-1.4,0.3-1.9c0.2-0.5,0.5-0.9,1-1.2c0.5-0.3,1-0.5,1.5-0.5c0.4,0,0.8,0.1,1.1,0.2c0.3,0.1,0.6,0.3,0.8,0.6
		c0.2,0.2,0.5,0.5,0.7,0.9C289.6,426.3,289.9,426.7,290.1,427.1z"/>
	<path class="st1" d="M326.3,441.4c0,1.5-0.4,2.8-1.1,3.9c-0.7,1.1-1.8,2.1-3.2,2.7c-1.4,0.6-3,1-5,1c-2.3,0-4.2-0.5-5.7-1.3
		c-1.1-0.6-1.9-1.5-2.6-2.6s-1-2.1-1-3.1c0-0.6,0.2-1.1,0.6-1.5c0.4-0.4,0.9-0.6,1.5-0.6c0.5,0,0.9,0.2,1.3,0.5s0.6,0.8,0.9,1.5
		c0.3,0.8,0.6,1.4,1,1.9s0.8,0.9,1.5,1.3c0.6,0.3,1.4,0.5,2.5,0.5c1.4,0,2.5-0.3,3.4-1c0.9-0.7,1.3-1.5,1.3-2.5
		c0-0.8-0.2-1.4-0.7-1.9c-0.5-0.5-1.1-0.9-1.8-1.1c-0.7-0.3-1.7-0.5-3-0.8c-1.7-0.4-3.1-0.9-4.2-1.4c-1.1-0.5-2-1.3-2.7-2.2
		c-0.7-0.9-1-2.1-1-3.5c0-1.3,0.4-2.5,1-3.5c0.7-1,1.7-1.8,3-2.4c1.3-0.5,2.9-0.8,4.7-0.8c1.4,0,2.7,0.2,3.7,0.5s1.9,0.9,2.6,1.5
		c0.7,0.6,1.2,1.2,1.5,1.9c0.3,0.7,0.5,1.3,0.5,1.9c0,0.6-0.2,1.1-0.6,1.6c-0.4,0.5-0.9,0.7-1.5,0.7c-0.5,0-1-0.1-1.2-0.4
		s-0.6-0.7-0.9-1.4c-0.4-0.9-0.9-1.6-1.5-2.1s-1.5-0.8-2.9-0.8c-1.2,0-2.2,0.3-2.9,0.8c-0.7,0.5-1.1,1.2-1.1,2
		c0,0.5,0.1,0.9,0.4,1.2c0.3,0.4,0.6,0.6,1,0.9c0.4,0.3,0.9,0.5,1.4,0.6c0.5,0.1,1.2,0.4,2.3,0.6c1.3,0.3,2.5,0.7,3.6,1
		c1.1,0.4,2,0.8,2.7,1.4c0.7,0.5,1.3,1.2,1.7,2.1C326,439.2,326.3,440.2,326.3,441.4z"/>
	<path class="st1" d="M339.3,439.3H335v6.8c0,1-0.2,1.7-0.7,2.2c-0.4,0.5-1,0.8-1.7,0.8c-0.7,0-1.3-0.3-1.7-0.7
		c-0.4-0.5-0.6-1.2-0.6-2.2v-18.5c0-1.1,0.2-1.8,0.7-2.3c0.5-0.5,1.2-0.7,2.3-0.7h6c1.8,0,3.2,0.1,4.1,0.4c1,0.3,1.8,0.7,2.5,1.4
		c0.7,0.6,1.2,1.4,1.6,2.3c0.4,0.9,0.5,1.9,0.5,3.1c0,2.4-0.7,4.3-2.2,5.5C344.3,438.6,342.1,439.3,339.3,439.3z M338.1,428.3h-3.2
		v7.3h3.2c1.1,0,2-0.1,2.8-0.4c0.7-0.2,1.3-0.6,1.7-1.2c0.4-0.5,0.6-1.3,0.6-2.1c0-1.1-0.3-1.9-0.9-2.6
		C341.6,428.6,340.2,428.3,338.1,428.3z"/>
	<path class="st1" d="M363.9,445.9l-1.1-3h-9.4l-1.1,3.1c-0.4,1.2-0.8,2-1.1,2.4c-0.3,0.4-0.8,0.6-1.5,0.6c-0.6,0-1.1-0.2-1.6-0.7
		c-0.5-0.5-0.7-1-0.7-1.5c0-0.3,0-0.7,0.2-1c0.1-0.4,0.3-0.8,0.5-1.5l5.9-15.6c0.2-0.5,0.4-1,0.6-1.6c0.2-0.6,0.5-1.1,0.8-1.6
		c0.3-0.4,0.6-0.8,1.1-1c0.4-0.3,1-0.4,1.6-0.4c0.6,0,1.2,0.1,1.6,0.4c0.4,0.3,0.8,0.6,1.1,1s0.5,0.8,0.7,1.3s0.4,1.1,0.7,1.9
		l6.1,15.5c0.5,1.2,0.7,2,0.7,2.6c0,0.6-0.2,1.1-0.7,1.5c-0.5,0.5-1,0.7-1.6,0.7c-0.4,0-0.7-0.1-1-0.2c-0.3-0.1-0.5-0.3-0.7-0.6
		s-0.4-0.6-0.6-1.1C364.2,446.7,364,446.3,363.9,445.9z M354.6,439.2h6.9l-3.5-9.9L354.6,439.2z"/>
	<path class="st1" d="M378.7,438.3H377v7.7c0,1-0.2,1.8-0.6,2.2c-0.4,0.5-1,0.7-1.7,0.7c-0.8,0-1.3-0.3-1.7-0.8s-0.6-1.2-0.6-2.2
		v-18.4c0-1,0.2-1.8,0.7-2.3c0.5-0.5,1.2-0.7,2.2-0.7h7.6c1.1,0,2,0,2.7,0.1c0.8,0.1,1.4,0.3,2,0.6c0.7,0.3,1.4,0.8,1.9,1.4
		s1,1.3,1.3,2c0.3,0.8,0.4,1.6,0.4,2.5c0,1.8-0.5,3.2-1.5,4.3s-2.5,1.8-4.4,2.3c0.8,0.5,1.6,1.1,2.4,2c0.8,0.9,1.4,1.8,2,2.9
		s1.1,1.9,1.4,2.7c0.3,0.8,0.5,1.4,0.5,1.7c0,0.3-0.1,0.6-0.3,0.9c-0.2,0.3-0.5,0.6-0.8,0.7s-0.7,0.3-1.2,0.3c-0.5,0-1-0.1-1.3-0.4
		c-0.4-0.3-0.7-0.6-0.9-1c-0.3-0.4-0.6-1-1-1.7l-1.9-3.2c-0.7-1.2-1.3-2.1-1.8-2.7s-1.1-1-1.6-1.3
		C380.2,438.5,379.5,438.3,378.7,438.3z M381.4,428.3H377v6.6h4.2c1.1,0,2.1-0.1,2.9-0.3c0.8-0.2,1.4-0.5,1.8-1s0.6-1.1,0.6-2
		c0-0.7-0.2-1.3-0.5-1.8s-0.8-0.9-1.4-1.1C384.1,428.4,383,428.3,381.4,428.3z"/>
	<path class="st1" d="M411,428.4h-10.6v5.9h9.8c0.7,0,1.3,0.2,1.6,0.5c0.4,0.3,0.5,0.8,0.5,1.3c0,0.5-0.2,1-0.5,1.3
		c-0.4,0.3-0.9,0.5-1.6,0.5h-9.8v6.8h11c0.7,0,1.3,0.2,1.7,0.5c0.4,0.4,0.6,0.8,0.6,1.4c0,0.6-0.2,1-0.6,1.4s-0.9,0.5-1.7,0.5h-12.8
		c-1,0-1.8-0.2-2.2-0.7c-0.5-0.5-0.7-1.2-0.7-2.3v-18c0-0.7,0.1-1.3,0.3-1.7c0.2-0.4,0.5-0.8,0.9-1c0.4-0.2,1-0.3,1.6-0.3H411
		c0.8,0,1.3,0.2,1.7,0.5c0.4,0.3,0.5,0.8,0.5,1.4c0,0.6-0.2,1-0.5,1.4C412.3,428.2,411.7,428.4,411,428.4z M405.6,421.7l-1.6-1.9
		l-1.6,1.9c-0.4,0.5-0.7,0.9-0.9,1s-0.5,0.2-0.9,0.2h-1.3c-0.4,0-0.6-0.1-0.6-0.2c0-0.1,0.2-0.4,0.5-0.8l1.8-2.2
		c0.1-0.2,0.3-0.4,0.5-0.6c0.2-0.2,0.4-0.4,0.5-0.5c0.1-0.1,0.4-0.2,0.6-0.3c0.3-0.1,0.6-0.1,1-0.1h0.9c0.7,0,1.2,0.1,1.4,0.3
		c0.3,0.2,0.6,0.6,1.1,1.2l1.8,2.2c0.3,0.4,0.5,0.7,0.5,0.7c0,0.2-0.2,0.3-0.7,0.3h-1.2c-0.3,0-0.6,0-0.8-0.1
		c-0.2-0.1-0.4-0.2-0.5-0.4C405.9,422.1,405.7,422,405.6,421.7z"/>
	<path class="st1" d="M423.5,427.1l9,14.1V427c0-0.9,0.2-1.6,0.6-2.1c0.4-0.5,0.9-0.7,1.6-0.7c0.7,0,1.2,0.2,1.6,0.7
		s0.6,1.2,0.6,2.1v18.8c0,2.1-0.8,3.1-2.5,3.1c-0.4,0-0.8-0.1-1.1-0.2c-0.3-0.1-0.6-0.3-1-0.6c-0.3-0.3-0.6-0.6-0.8-1
		c-0.3-0.4-0.5-0.7-0.8-1.1l-8.8-14v14c0,0.9-0.2,1.6-0.6,2.1s-0.9,0.7-1.6,0.7c-0.7,0-1.2-0.2-1.6-0.7s-0.6-1.2-0.6-2.1v-18.5
		c0-0.8,0.1-1.4,0.3-1.9c0.2-0.5,0.5-0.9,1-1.2c0.5-0.3,1-0.5,1.5-0.5c0.4,0,0.8,0.1,1.1,0.2c0.3,0.1,0.6,0.3,0.8,0.6
		c0.2,0.2,0.5,0.5,0.7,0.9C423,426.3,423.2,426.7,423.5,427.1z"/>
	<path class="st1" d="M461.7,441c0,0.8-0.2,1.6-0.5,2.5c-0.4,0.9-0.9,1.8-1.7,2.6c-0.8,0.9-1.8,1.5-3,2.1s-2.6,0.8-4.2,0.8
		c-1.2,0-2.3-0.1-3.3-0.4s-1.9-0.6-2.7-1.1s-1.6-1.2-2.3-2c-0.6-0.8-1.1-1.6-1.6-2.5c-0.4-0.9-0.8-1.9-1-3c-0.2-1.1-0.3-2.2-0.3-3.4
		c0-1.9,0.3-3.7,0.8-5.2s1.3-2.8,2.3-3.9c1-1.1,2.2-1.9,3.6-2.5s2.8-0.9,4.4-0.9c1.9,0,3.5,0.4,5,1.2s2.6,1.7,3.4,2.9
		c0.8,1.1,1.2,2.2,1.2,3.2c0,0.6-0.2,1-0.6,1.5s-0.8,0.6-1.4,0.6c-0.6,0-1-0.1-1.4-0.4c-0.3-0.3-0.6-0.8-1-1.5
		c-0.6-1.2-1.3-2.1-2.2-2.7c-0.8-0.6-1.9-0.9-3.1-0.9c-1.9,0-3.5,0.8-4.6,2.3c-1.1,1.5-1.7,3.7-1.7,6.5c0,1.9,0.3,3.4,0.8,4.6
		s1.2,2.2,2.1,2.8s2,0.9,3.3,0.9c1.4,0,2.5-0.4,3.4-1c0.9-0.7,1.6-1.7,2.1-3c0.2-0.6,0.5-1.1,0.7-1.5c0.3-0.4,0.8-0.6,1.4-0.6
		c0.6,0,1,0.2,1.4,0.6C461.5,439.9,461.7,440.4,461.7,441z"/>
	<path class="st1" d="M466.2,446v-18.9c0-1,0.2-1.7,0.6-2.2s1-0.7,1.7-0.7c0.7,0,1.3,0.2,1.7,0.7c0.4,0.5,0.7,1.2,0.7,2.2V446
		c0,1-0.2,1.7-0.7,2.2s-1,0.7-1.7,0.7c-0.7,0-1.2-0.3-1.7-0.7C466.4,447.8,466.2,447,466.2,446z"/>
	<path class="st1" d="M491,445.9l-1.1-3h-9.4l-1.1,3.1c-0.4,1.2-0.8,2-1.1,2.4c-0.3,0.4-0.8,0.6-1.5,0.6c-0.6,0-1.1-0.2-1.6-0.7
		c-0.5-0.5-0.7-1-0.7-1.5c0-0.3,0-0.7,0.2-1c0.1-0.4,0.3-0.8,0.5-1.5l5.9-15.6c0.2-0.5,0.4-1,0.6-1.6c0.2-0.6,0.5-1.1,0.8-1.6
		c0.3-0.4,0.6-0.8,1.1-1c0.4-0.3,1-0.4,1.6-0.4c0.6,0,1.2,0.1,1.6,0.4c0.4,0.3,0.8,0.6,1.1,1s0.5,0.8,0.7,1.3s0.4,1.1,0.7,1.9
		l6.1,15.5c0.5,1.2,0.7,2,0.7,2.6c0,0.6-0.2,1.1-0.7,1.5s-1,0.7-1.6,0.7c-0.4,0-0.7-0.1-1-0.2c-0.3-0.1-0.5-0.3-0.7-0.6
		s-0.4-0.6-0.6-1.1C491.3,446.7,491.1,446.3,491,445.9z M481.7,439.2h6.9l-3.5-9.9L481.7,439.2z"/>
	<path class="st1" d="M202.2,445l-1.1-3h-9.4l-1.1,3.1c-0.4,1.2-0.8,2-1.1,2.4c-0.3,0.4-0.8,0.6-1.5,0.6c-0.6,0-1.1-0.2-1.6-0.7
		c-0.5-0.5-0.7-1-0.7-1.5c0-0.3,0-0.7,0.2-1c0.1-0.4,0.3-0.8,0.5-1.5l5.9-15.6c0.2-0.5,0.4-1,0.6-1.6c0.2-0.6,0.5-1.1,0.8-1.6
		c0.3-0.4,0.6-0.8,1.1-1c0.4-0.3,1-0.4,1.6-0.4c0.6,0,1.2,0.1,1.6,0.4c0.4,0.3,0.8,0.6,1.1,1s0.5,0.8,0.7,1.3s0.4,1.1,0.7,1.9
		l6.1,15.5c0.5,1.2,0.7,2,0.7,2.6c0,0.6-0.2,1.1-0.7,1.5c-0.5,0.5-1,0.7-1.6,0.7c-0.4,0-0.7-0.1-1-0.2c-0.3-0.1-0.5-0.3-0.7-0.6
		s-0.4-0.6-0.6-1.1C202.5,445.8,202.3,445.4,202.2,445z M192.9,438.4h6.9l-3.5-9.9L192.9,438.4z"/>
</g>
<line class="st1" x1="9.5" y1="408.5" x2="506.5" y2="408.5"/>
</svg>
