<?xml version="1.0" encoding="utf-8"?>
<!-- Generator: Adobe Illustrator 23.0.0, SVG Export Plug-In . SVG Version: 6.00 Build 0)  -->
<svg version="1.1" id="Camada_1" xmlns="http://www.w3.org/2000/svg" xmlns:xlink="http://www.w3.org/1999/xlink" x="0px" y="0px"
	 viewBox="0 0 800 300" style="enable-background:new 0 0 800 300;" xml:space="preserve">
<style type="text/css">
	.st0{fill:none;}
	.st1{fill:#B18A20;}
	.st2{fill:#1A3666;}
	.st3{fill-rule:evenodd;clip-rule:evenodd;fill:#1A3666;}
	.st4{fill:none;stroke:#1A3666;stroke-width:3;stroke-miterlimit:10;}
</style>
<rect x="-88.5" y="-152.1" class="st0" width="957.7" height="635.1"/>
<rect x="-10" y="22.1" class="st0" width="869" height="286.4"/>
<path class="st1" d="M702,95.1c0,12.5,2.3,21.6,7,27.1s11,8.2,19.1,8.2c8.2,0,14.6-2.7,19.1-8.1c4.5-5.3,6.8-15,6.8-29
	c0-11.7-2.3-20.3-7.1-25.7c-4.7-5.4-11.1-8.1-19.2-8.1c-7.7,0-14,2.8-18.6,8.2S702,82.4,702,95.1 M663.8,95
	c0-20.3,5.6-36.1,16.9-47.4c11.3-11.3,27-17,47.1-17c20.6,0,36.5,5.6,47.7,16.7C786.6,58.4,792.3,74,792.3,94
	c0,14.6-2.4,26.5-7.3,35.8c-4.7,9.2-12.1,16.8-21.1,21.7c-9.2,5.2-20.7,7.8-34.5,7.8c-14,0-25.6-2.2-34.7-6.7
	c-9.2-4.4-16.6-11.6-22.3-21.3C666.6,121.7,663.8,109.6,663.8,95L663.8,95z M597,91.6h6.2c7.3,0,12.6-1.2,15.9-3.7
	c3.3-2.5,5-6.4,5-11.7c0-6.3-1.6-10.7-4.7-13.3c-3.1-2.6-8.3-4-15.8-4H597V91.6z M565.3,157.2V32.9h35.3c13.8,0,23.4,0.7,28.8,1.9
	c5.4,1.3,10.1,3.4,14.1,6.4c4.4,3.4,8,7.9,10.3,13c2.4,5.3,3.6,11.1,3.6,17.4c0,9.6-2.3,17.4-7.1,23.5c-4.7,6-11.6,10-20.6,12
	l33.7,50.2h-38.1L597,108.6v48.7L565.3,157.2L565.3,157.2z"/>
<path class="st2" d="M373.9,93.8h6c7,0,12.2-1.2,15.4-3.6c3.3-2.4,4.9-6.2,4.9-11.4c0-6-1.5-10.3-4.5-12.9c-3-2.5-8.1-3.8-15.3-3.8
	h-6.5V93.8L373.9,93.8z M343.2,157.3V36.8h34.2c13.4,0,22.7,0.6,27.9,1.8c5.3,1.2,9.8,3.3,13.7,6.2c4.3,3.3,7.7,7.6,10,12.6
	c2.3,5.1,3.5,10.7,3.5,16.9c0,9.3-2.3,16.9-6.8,22.8c-4.6,5.8-11.2,9.7-20,11.6l32.7,48.6h-36.9l-27.6-47.2v47.2H343.2z"/>
<path class="st3" d="M552,120c-2.5,10.5-7.5,21-15,27.5c-10,8.7-23.6,13.1-40.8,13.1c-19.2,0-34.4-5.7-45.3-17
	c-11-11.3-16.5-26.8-16.5-46.5c0-19.6,5.5-35.1,16.4-46.5s25.8-17,44.6-17c17.4,0,31,4.2,41,12.6c7.9,6.7,13,17.6,15.4,28.8h-38
	c-0.1-2.3-2.1-5.4-3.5-6.7c-3.4-3.1-8.2-4.7-14.4-4.7c-7.6,0-13.2,2.8-17,8.3c-3.8,5.6-5.7,13.9-5.7,25.1c0,11,2,19.3,6,24.9
	s9.9,8.4,17.7,8.4c6,0,10.7-1.7,14.2-5.1c1-1,1.9-4,2.7-5.3L552,120L552,120z"/>
<path class="st3" d="M339.2,120.1c-2.5,10.5-7.5,21-15,27.5c-10,8.7-23.6,13.1-40.8,13.1c-19.3,0-34.4-5.7-45.4-17
	s-16.5-26.8-16.5-46.5c0-19.6,5.4-35.1,16.3-46.5s25.8-17,44.6-17c17.4,0,31,4.2,41,12.6c7.9,6.7,13,17.6,15.4,28.8h-38
	c-0.1-2.3-2.1-5.4-3.5-6.7c-3.4-3.1-8.2-4.7-14.4-4.7c-7.6,0-13.2,2.8-17,8.3c-3.8,5.6-5.7,13.9-5.7,25.1c0,11,2,19.3,6,24.9
	s9.9,8.4,17.7,8.4c6,0,10.7-1.7,14.2-5.1c1-1,1.9-4,2.7-5.3L339.2,120.1z"/>
<line class="st4" x1="225.4" y1="178.2" x2="799.5" y2="178.2"/>
<g>
	<path class="st2" d="M237.4,213.4h-5.2v8.1c0,1.2-0.3,2-0.8,2.6s-1.2,0.9-2,0.9s-1.5-0.3-2-0.9c-0.5-0.6-0.8-1.5-0.8-2.6v-22
		c0-1.3,0.3-2.2,0.9-2.7c0.6-0.5,1.5-0.8,2.7-0.8h7.2c2.1,0,3.8,0.2,4.9,0.5c1.1,0.3,2.1,0.9,2.9,1.6c0.8,0.8,1.5,1.7,1.9,2.8
		s0.6,2.3,0.6,3.7c0,2.9-0.9,5.1-2.6,6.6C243.4,212.7,240.8,213.4,237.4,213.4z M236,200.4h-3.8v8.7h3.8c1.3,0,2.4-0.1,3.3-0.4
		s1.6-0.8,2-1.4s0.7-1.5,0.7-2.5c0-1.3-0.4-2.3-1.1-3.1C240.2,200.8,238.5,200.4,236,200.4z"/>
	<path class="st2" d="M264.7,195.5c2.9,0,5.3,0.6,7.4,1.8s3.6,2.9,4.7,5.1c1.1,2.2,1.6,4.8,1.6,7.8c0,2.2-0.3,4.2-0.9,6
		s-1.5,3.4-2.6,4.7c-1.2,1.3-2.6,2.3-4.3,3c-1.7,0.7-3.6,1.1-5.8,1.1c-2.2,0-4.1-0.4-5.8-1.1c-1.7-0.7-3.1-1.7-4.3-3
		c-1.1-1.3-2-2.9-2.6-4.7s-0.9-3.8-0.9-6s0.3-4.2,0.9-6c0.6-1.8,1.5-3.4,2.7-4.7c1.2-1.3,2.6-2.3,4.2-3
		C260.7,195.9,262.6,195.5,264.7,195.5z M272.7,210.2c0-2.1-0.3-3.9-1-5.4s-1.6-2.7-2.8-3.5c-1.2-0.8-2.6-1.2-4.2-1.2
		c-1.1,0-2.2,0.2-3.1,0.7c-0.9,0.4-1.8,1.1-2.5,1.9c-0.7,0.8-1.2,1.9-1.6,3.2s-0.6,2.7-0.6,4.3s0.2,3.1,0.6,4.4
		c0.4,1.3,1,2.4,1.7,3.3c0.7,0.9,1.6,1.5,2.5,1.9s2,0.6,3.1,0.6c1.4,0,2.8-0.4,4-1.1c1.2-0.7,2.2-1.9,2.9-3.4
		C272.3,214.4,272.7,212.5,272.7,210.2z"/>
	<path class="st2" d="M290.8,212.4h-2v9.2c0,1.2-0.3,2.1-0.8,2.7c-0.5,0.6-1.2,0.9-2,0.9c-0.9,0-1.6-0.3-2.1-0.9
		c-0.5-0.6-0.7-1.5-0.7-2.6v-22c0-1.2,0.3-2.1,0.8-2.7s1.4-0.8,2.6-0.8h9.1c1.3,0,2.3,0.1,3.2,0.2c0.9,0.1,1.7,0.3,2.4,0.7
		c0.9,0.4,1.6,0.9,2.3,1.6c0.7,0.7,1.2,1.5,1.5,2.4c0.4,0.9,0.5,1.9,0.5,3c0,2.1-0.6,3.8-1.8,5.1c-1.2,1.3-2.9,2.2-5.3,2.7
		c1,0.5,2,1.4,2.9,2.4s1.7,2.2,2.4,3.4c0.7,1.2,1.3,2.3,1.7,3.3c0.4,1,0.6,1.6,0.6,2s-0.1,0.8-0.4,1.1c-0.2,0.4-0.6,0.7-1,0.9
		s-0.9,0.3-1.4,0.3c-0.6,0-1.2-0.2-1.6-0.5s-0.8-0.7-1.1-1.2c-0.3-0.5-0.7-1.2-1.3-2.1l-2.2-3.8c-0.8-1.4-1.5-2.5-2.2-3.2
		c-0.6-0.7-1.3-1.2-1.9-1.5C292.6,212.5,291.8,212.4,290.8,212.4z M294,200.4h-5.2v7.8h5c1.4,0,2.5-0.1,3.4-0.4
		c0.9-0.2,1.6-0.7,2.1-1.2c0.5-0.6,0.7-1.4,0.7-2.4c0-0.8-0.2-1.5-0.6-2.1s-0.9-1.1-1.6-1.4C297.2,200.5,295.9,200.4,294,200.4z"/>
	<path class="st2" d="M327.2,200.8h-6.1v20.7c0,1.2-0.3,2.1-0.8,2.7c-0.5,0.6-1.2,0.9-2,0.9s-1.5-0.3-2-0.9
		c-0.5-0.6-0.8-1.5-0.8-2.6v-20.7h-6.1c-1,0-1.7-0.2-2.1-0.7c-0.5-0.4-0.7-1-0.7-1.7s0.2-1.3,0.7-1.8c0.5-0.4,1.2-0.6,2.1-0.6h17.9
		c1,0,1.7,0.2,2.2,0.7c0.5,0.4,0.7,1,0.7,1.7s-0.2,1.3-0.7,1.7C328.9,200.6,328.2,200.8,327.2,200.8z"/>
	<path class="st2" d="M348.7,221.3l-1.3-3.6h-11.3l-1.3,3.7c-0.5,1.4-1,2.4-1.3,2.9s-1,0.8-1.8,0.8c-0.7,0-1.3-0.3-1.9-0.8
		c-0.5-0.5-0.8-1.1-0.8-1.8c0-0.4,0.1-0.8,0.2-1.2s0.3-1,0.6-1.7l7.1-18.5c0.2-0.5,0.4-1.2,0.7-1.9c0.3-0.7,0.6-1.4,0.9-1.9
		s0.7-0.9,1.3-1.2c0.5-0.3,1.2-0.5,1.9-0.5c0.8,0,1.4,0.2,2,0.5c0.5,0.3,0.9,0.7,1.3,1.2c0.3,0.5,0.6,1,0.8,1.5
		c0.2,0.5,0.5,1.3,0.8,2.2l7.3,18.4c0.6,1.4,0.9,2.4,0.9,3.1c0,0.7-0.3,1.3-0.8,1.8s-1.2,0.8-1.9,0.8c-0.4,0-0.8-0.1-1.1-0.2
		c-0.3-0.2-0.6-0.4-0.8-0.7c-0.2-0.3-0.4-0.7-0.7-1.3C349.1,222.3,348.9,221.8,348.7,221.3z M337.6,213.4h8.3l-4.2-11.8L337.6,213.4
		z"/>
	<path class="st2" d="M364.4,199v20.8h11.4c0.9,0,1.6,0.2,2.1,0.7s0.7,1,0.7,1.7s-0.2,1.3-0.7,1.7s-1.2,0.7-2.1,0.7h-13.6
		c-1.2,0-2.1-0.3-2.6-0.8c-0.5-0.6-0.8-1.5-0.8-2.7v-22c0-1.2,0.3-2,0.8-2.6s1.2-0.9,2-0.9s1.5,0.3,2.1,0.9
		C364.1,197,364.4,197.9,364.4,199z"/>
	<path class="st2" d="M395.5,196h7.3c1.9,0,3.5,0.2,4.9,0.5c1.4,0.4,2.6,1,3.7,2c2.9,2.5,4.3,6.4,4.3,11.6c0,1.7-0.1,3.3-0.4,4.7
		s-0.7,2.7-1.3,3.8c-0.6,1.1-1.4,2.1-2.3,3c-0.7,0.7-1.6,1.2-2.4,1.7c-0.9,0.4-1.8,0.7-2.8,0.9s-2.2,0.3-3.4,0.3h-7.3
		c-1,0-1.8-0.2-2.3-0.5s-0.9-0.8-1-1.3c-0.2-0.6-0.2-1.3-0.2-2.2v-20.9c0-1.2,0.3-2.1,0.8-2.7C393.4,196.3,394.3,196,395.5,196z
		 M397.7,200.6V220h4.3c0.9,0,1.7,0,2.2-0.1s1.1-0.2,1.7-0.4s1.1-0.5,1.5-0.9c1.9-1.6,2.8-4.4,2.8-8.4c0-2.8-0.4-4.9-1.2-6.3
		c-0.8-1.4-1.8-2.3-3.1-2.7c-1.2-0.4-2.7-0.6-4.4-0.6H397.7L397.7,200.6z"/>
	<path class="st2" d="M474.3,200.8h-6.1v20.7c0,1.2-0.3,2.1-0.8,2.7c-0.5,0.6-1.2,0.9-2,0.9s-1.5-0.3-2-0.9
		c-0.5-0.6-0.8-1.5-0.8-2.6v-20.7h-6.1c-1,0-1.7-0.2-2.1-0.7c-0.5-0.4-0.7-1-0.7-1.7s0.2-1.3,0.7-1.8c0.5-0.4,1.2-0.6,2.1-0.6h17.9
		c1,0,1.7,0.2,2.2,0.7c0.5,0.4,0.7,1,0.7,1.7s-0.2,1.3-0.7,1.7C476,200.6,475.3,200.8,474.3,200.8z"/>
	<path class="st2" d="M488.1,212.4h-2v9.2c0,1.2-0.3,2.1-0.8,2.7s-1.2,0.9-2,0.9c-0.9,0-1.6-0.3-2.1-0.9c-0.5-0.6-0.7-1.5-0.7-2.6
		v-22c0-1.2,0.3-2.1,0.8-2.7c0.5-0.6,1.4-0.8,2.6-0.8h9.1c1.3,0,2.3,0.1,3.2,0.2c0.9,0.1,1.7,0.3,2.4,0.7c0.9,0.4,1.6,0.9,2.3,1.6
		s1.2,1.5,1.5,2.4c0.4,0.9,0.5,1.9,0.5,3c0,2.1-0.6,3.8-1.8,5.1c-1.2,1.3-2.9,2.2-5.3,2.7c1,0.5,2,1.4,2.9,2.4
		c0.9,1.1,1.7,2.2,2.4,3.4c0.7,1.2,1.3,2.3,1.7,3.3c0.4,1,0.6,1.6,0.6,2s-0.1,0.8-0.4,1.1c-0.2,0.4-0.6,0.7-1,0.9s-0.9,0.3-1.4,0.3
		c-0.6,0-1.2-0.2-1.6-0.5s-0.8-0.7-1.1-1.2c-0.3-0.5-0.7-1.2-1.3-2.1l-2.2-3.8c-0.8-1.4-1.5-2.5-2.2-3.2c-0.6-0.7-1.3-1.2-1.9-1.5
		C489.9,212.5,489.1,212.4,488.1,212.4z M491.3,200.4h-5.2v7.8h5c1.4,0,2.5-0.1,3.4-0.4c0.9-0.2,1.6-0.7,2.1-1.2s0.7-1.4,0.7-2.4
		c0-0.8-0.2-1.5-0.6-2.1s-0.9-1.1-1.6-1.4C494.5,200.5,493.2,200.4,491.3,200.4z"/>
	<path class="st2" d="M526.2,221.3l-1.3-3.6h-11.3l-1.3,3.7c-0.5,1.4-1,2.4-1.3,2.9c-0.4,0.5-1,0.8-1.8,0.8c-0.7,0-1.3-0.3-1.9-0.8
		c-0.5-0.5-0.8-1.1-0.8-1.8c0-0.4,0.1-0.8,0.2-1.2s0.3-1,0.6-1.7l7.1-18.5c0.2-0.5,0.4-1.2,0.7-1.9s0.6-1.4,0.9-1.9
		c0.3-0.5,0.7-0.9,1.3-1.2c0.5-0.3,1.2-0.5,1.9-0.5c0.8,0,1.4,0.2,2,0.5c0.5,0.3,0.9,0.7,1.3,1.2c0.3,0.5,0.6,1,0.8,1.5
		c0.2,0.6,0.5,1.3,0.8,2.2l7.3,18.4c0.6,1.4,0.9,2.4,0.9,3.1c0,0.7-0.3,1.3-0.8,1.8s-1.2,0.8-1.9,0.8c-0.4,0-0.8-0.1-1.1-0.2
		c-0.3-0.2-0.6-0.4-0.8-0.7s-0.4-0.7-0.7-1.3S526.3,221.8,526.2,221.3z M515,213.4h8.3l-4.2-11.8L515,213.4z"/>
	<path class="st2" d="M543.6,199l10.8,16.8v-17c0-1.1,0.2-1.9,0.7-2.5c0.5-0.5,1.1-0.8,1.9-0.8c0.8,0,1.4,0.3,1.9,0.8
		s0.7,1.4,0.7,2.5v22.4c0,2.5-1,3.8-3,3.8c-0.5,0-1-0.1-1.4-0.2c-0.4-0.1-0.8-0.4-1.1-0.7c-0.4-0.3-0.7-0.7-1-1.1
		c-0.3-0.4-0.6-0.9-0.9-1.3L541.6,205v16.7c0,1.1-0.2,1.9-0.7,2.5s-1.1,0.8-1.9,0.8c-0.8,0-1.4-0.3-1.9-0.8
		c-0.5-0.6-0.7-1.4-0.7-2.5v-22c0-0.9,0.1-1.7,0.3-2.2c0.2-0.6,0.6-1.1,1.2-1.4c0.6-0.4,1.2-0.6,1.8-0.6c0.5,0,0.9,0.1,1.3,0.2
		c0.4,0.2,0.7,0.4,0.9,0.7c0.3,0.3,0.5,0.7,0.8,1.1C543,198,543.3,198.5,543.6,199z"/>
	<path class="st2" d="M586.9,216c0,1.7-0.4,3.3-1.3,4.7c-0.9,1.4-2.1,2.5-3.8,3.2c-1.7,0.8-3.6,1.2-5.9,1.2c-2.7,0-5-0.5-6.8-1.6
		c-1.3-0.8-2.3-1.8-3.1-3.1s-1.2-2.5-1.2-3.7c0-0.7,0.2-1.3,0.7-1.8s1.1-0.8,1.8-0.8c0.6,0,1.1,0.2,1.5,0.6s0.8,1,1.1,1.7
		c0.4,0.9,0.7,1.7,1.1,2.3s1,1.1,1.7,1.5s1.7,0.6,2.9,0.6c1.7,0,3-0.4,4.1-1.2c1-0.8,1.6-1.8,1.6-3c0-0.9-0.3-1.7-0.8-2.3
		c-0.6-0.6-1.3-1-2.2-1.4c-0.9-0.3-2.1-0.6-3.6-1c-2-0.5-3.7-1-5-1.7s-2.4-1.5-3.2-2.6s-1.2-2.5-1.2-4.1s0.4-3,1.2-4.2
		s2-2.2,3.6-2.8c1.6-0.7,3.4-1,5.6-1c1.7,0,3.2,0.2,4.4,0.7c1.2,0.4,2.3,1,3.1,1.7s1.4,1.5,1.8,2.3c0.4,0.8,0.6,1.6,0.6,2.3
		s-0.2,1.3-0.7,1.9c-0.5,0.5-1.1,0.8-1.8,0.8c-0.6,0-1.1-0.2-1.5-0.5s-0.7-0.9-1.1-1.6c-0.5-1.1-1.1-1.9-1.8-2.5s-1.8-0.9-3.4-0.9
		c-1.5,0-2.6,0.3-3.5,1s-1.3,1.4-1.3,2.4c0,0.6,0.2,1.1,0.5,1.5s0.7,0.8,1.2,1.1s1.1,0.5,1.6,0.7s1.4,0.4,2.7,0.7
		c1.6,0.4,3,0.8,4.3,1.2c1.3,0.5,2.4,1,3.2,1.7s1.6,1.5,2.1,2.5C586.6,213.3,586.9,214.5,586.9,216z"/>
	<path class="st2" d="M602.4,213.4h-5.2v8.1c0,1.2-0.3,2-0.8,2.6s-1.2,0.9-2,0.9s-1.5-0.3-2-0.9s-0.8-1.5-0.8-2.6v-22
		c0-1.3,0.3-2.2,0.9-2.7c0.6-0.5,1.5-0.8,2.7-0.8h7.2c2.1,0,3.8,0.2,4.9,0.5c1.1,0.3,2.1,0.9,2.9,1.6c0.8,0.8,1.5,1.7,1.9,2.8
		s0.6,2.3,0.6,3.7c0,2.9-0.9,5.1-2.6,6.6C608.5,212.7,605.9,213.4,602.4,213.4z M601.1,200.4h-3.8v8.7h3.8c1.3,0,2.4-0.1,3.3-0.4
		s1.6-0.8,2-1.4c0.5-0.7,0.7-1.5,0.7-2.5c0-1.3-0.4-2.3-1.1-3.1C605.2,200.8,603.6,200.4,601.1,200.4z"/>
	<path class="st2" d="M631.9,221.3l-1.3-3.6h-11.3l-1.3,3.7c-0.5,1.4-1,2.4-1.3,2.9c-0.4,0.5-1,0.8-1.8,0.8c-0.7,0-1.3-0.3-1.9-0.8
		c-0.5-0.5-0.8-1.1-0.8-1.8c0-0.4,0.1-0.8,0.2-1.2c0.1-0.4,0.3-1,0.6-1.7l7-18.6c0.2-0.5,0.4-1.2,0.7-1.9s0.6-1.4,0.9-1.9
		c0.3-0.5,0.7-0.9,1.3-1.2c0.5-0.3,1.2-0.5,1.9-0.5c0.8,0,1.4,0.2,2,0.5c0.5,0.3,0.9,0.7,1.3,1.2c0.3,0.5,0.6,1,0.8,1.5
		c0.2,0.6,0.5,1.3,0.8,2.2l7.3,18.4c0.6,1.4,0.9,2.4,0.9,3.1c0,0.7-0.3,1.3-0.8,1.8s-1.2,0.8-1.9,0.8c-0.4,0-0.8-0.1-1.1-0.2
		c-0.3-0.2-0.6-0.4-0.8-0.7s-0.4-0.7-0.7-1.3S632,221.8,631.9,221.3z M620.7,213.4h8.3l-4.2-11.8L620.7,213.4z"/>
	<path class="st2" d="M649.6,212.4h-2v9.2c0,1.2-0.3,2.1-0.8,2.7c-0.5,0.6-1.2,0.9-2,0.9c-0.9,0-1.6-0.3-2.1-0.9
		c-0.5-0.6-0.7-1.5-0.7-2.6v-22c0-1.2,0.3-2.1,0.8-2.7c0.5-0.6,1.4-0.8,2.6-0.8h9.1c1.3,0,2.3,0.1,3.2,0.2s1.7,0.3,2.4,0.7
		c0.9,0.4,1.6,0.9,2.3,1.6c0.7,0.7,1.2,1.5,1.5,2.4c0.4,0.9,0.5,1.9,0.5,3c0,2.1-0.6,3.8-1.8,5.1s-2.9,2.2-5.3,2.7
		c1,0.5,2,1.4,2.9,2.4c0.9,1.1,1.7,2.2,2.4,3.4s1.3,2.3,1.7,3.3s0.6,1.6,0.6,2s-0.1,0.8-0.4,1.1c-0.2,0.4-0.6,0.7-1,0.9
		s-0.9,0.3-1.4,0.3c-0.6,0-1.2-0.2-1.6-0.5c-0.4-0.3-0.8-0.7-1.1-1.2s-0.7-1.2-1.3-2.1l-2.2-3.8c-0.8-1.4-1.5-2.5-2.2-3.2
		c-0.6-0.7-1.3-1.2-1.9-1.5C651.4,212.5,650.6,212.4,649.6,212.4z M652.8,200.4h-5.2v7.8h5c1.4,0,2.5-0.1,3.4-0.4
		c0.9-0.2,1.6-0.7,2.1-1.2s0.7-1.4,0.7-2.4c0-0.8-0.2-1.5-0.6-2.1c-0.4-0.6-0.9-1.1-1.6-1.4C656,200.5,654.7,200.4,652.8,200.4z"/>
	<path class="st2" d="M688.2,200.5h-12.7v7h11.7c0.9,0,1.5,0.2,1.9,0.6c0.4,0.4,0.6,0.9,0.6,1.6s-0.2,1.2-0.6,1.6
		c-0.4,0.4-1.1,0.6-1.9,0.6h-11.7v8.1h13.1c0.9,0,1.5,0.2,2,0.6c0.4,0.4,0.7,1,0.7,1.7s-0.2,1.2-0.7,1.6c-0.4,0.4-1.1,0.6-2,0.6
		h-15.3c-1.2,0-2.1-0.3-2.6-0.8c-0.5-0.6-0.8-1.5-0.8-2.7v-21.4c0-0.8,0.1-1.5,0.4-2c0.2-0.5,0.6-0.9,1.1-1.1c0.5-0.2,1.2-0.4,2-0.4
		h14.9c0.9,0,1.6,0.2,2,0.6c0.4,0.4,0.7,0.9,0.7,1.6c0,0.7-0.2,1.2-0.7,1.6C689.8,200.3,689.1,200.5,688.2,200.5z M681.7,192.6
		l-1.9-2.3l-1.9,2.3c-0.5,0.7-0.9,1-1.1,1.2c-0.2,0.1-0.5,0.2-1.1,0.2h-1.5c-0.5,0-0.8-0.1-0.8-0.3c0-0.1,0.2-0.5,0.6-1l2.1-2.6
		c0.2-0.2,0.4-0.5,0.6-0.8c0.2-0.3,0.4-0.5,0.6-0.6c0.2-0.1,0.4-0.2,0.8-0.3c0.3-0.1,0.7-0.1,1.1-0.1h1.1c0.8,0,1.4,0.1,1.7,0.3
		s0.8,0.7,1.4,1.5l2.2,2.6c0.4,0.5,0.5,0.8,0.5,0.9c0,0.2-0.3,0.3-0.9,0.3h-1.4c-0.4,0-0.7-0.1-0.9-0.2c-0.2-0.1-0.4-0.3-0.6-0.5
		C682.1,193.1,681.9,192.8,681.7,192.6z"/>
	<path class="st2" d="M703.1,199l10.8,16.8v-17c0-1.1,0.2-1.9,0.7-2.5c0.5-0.5,1.1-0.8,1.9-0.8c0.8,0,1.4,0.3,1.9,0.8
		s0.7,1.4,0.7,2.5v22.4c0,2.5-1,3.8-3,3.8c-0.5,0-1-0.1-1.4-0.2c-0.4-0.1-0.8-0.4-1.1-0.7c-0.4-0.3-0.7-0.7-1-1.1
		c-0.3-0.4-0.6-0.9-0.9-1.3L701.1,205v16.7c0,1.1-0.2,1.9-0.7,2.5s-1.1,0.8-1.9,0.8c-0.8,0-1.4-0.3-1.9-0.8
		c-0.5-0.6-0.7-1.4-0.7-2.5v-22c0-0.9,0.1-1.7,0.3-2.2c0.2-0.6,0.6-1.1,1.2-1.4c0.6-0.4,1.2-0.6,1.8-0.6c0.5,0,0.9,0.1,1.3,0.2
		c0.4,0.2,0.7,0.4,0.9,0.7c0.3,0.3,0.5,0.7,0.8,1.1C702.5,198,702.8,198.5,703.1,199z"/>
	<path class="st2" d="M748.9,215.5c0,0.9-0.2,1.9-0.7,3c-0.4,1.1-1.1,2.1-2.1,3.1c-0.9,1-2.1,1.8-3.6,2.5c-1.5,0.6-3.1,0.9-5.1,0.9
		c-1.5,0-2.8-0.1-4-0.4c-1.2-0.3-2.3-0.7-3.3-1.3s-1.9-1.4-2.7-2.4c-0.7-0.9-1.4-1.9-1.9-3s-0.9-2.3-1.2-3.6s-0.4-2.6-0.4-4
		c0-2.3,0.3-4.4,1-6.2s1.6-3.4,2.8-4.7s2.6-2.3,4.3-3c1.6-0.7,3.4-1,5.2-1c2.2,0,4.3,0.5,6,1.4s3.1,2.1,4,3.4
		c0.9,1.4,1.4,2.6,1.4,3.8c0,0.7-0.2,1.2-0.7,1.8c-0.5,0.5-1,0.8-1.7,0.8s-1.3-0.2-1.6-0.5c-0.4-0.4-0.8-0.9-1.2-1.8
		c-0.7-1.4-1.6-2.5-2.6-3.2s-2.2-1.1-3.7-1.1c-2.3,0-4.1,0.9-5.5,2.7s-2.1,4.4-2.1,7.7c0,2.2,0.3,4.1,0.9,5.5
		c0.6,1.5,1.5,2.6,2.6,3.3s2.4,1.1,3.9,1.1c1.6,0,3-0.4,4.1-1.2s2-2,2.5-3.6c0.2-0.8,0.5-1.4,0.9-1.8s0.9-0.7,1.7-0.7
		c0.7,0,1.2,0.2,1.7,0.7C748.7,214.2,748.9,214.8,748.9,215.5z"/>
	<path class="st2" d="M754.2,221.5V199c0-1.2,0.3-2,0.8-2.6s1.2-0.9,2-0.9s1.5,0.3,2.1,0.9s0.8,1.5,0.8,2.6v22.5
		c0,1.2-0.3,2.1-0.8,2.6c-0.5,0.6-1.2,0.9-2.1,0.9c-0.8,0-1.5-0.3-2-0.9C754.4,223.6,754.2,222.7,754.2,221.5z"/>
	<path class="st2" d="M783.8,221.3l-1.3-3.6h-11.3l-1.3,3.7c-0.5,1.4-1,2.4-1.3,2.9c-0.4,0.5-1,0.8-1.8,0.8c-0.7,0-1.3-0.3-1.9-0.8
		c-0.5-0.5-0.8-1.1-0.8-1.8c0-0.4,0.1-0.8,0.2-1.2c0.1-0.4,0.3-1,0.6-1.7L772,201c0.2-0.5,0.4-1.2,0.7-1.9s0.6-1.4,0.9-1.9
		c0.3-0.5,0.7-0.9,1.3-1.2c0.5-0.3,1.2-0.5,1.9-0.5c0.8,0,1.4,0.2,2,0.5c0.5,0.3,0.9,0.7,1.3,1.2c0.3,0.5,0.6,1,0.8,1.5
		c0.2,0.6,0.5,1.3,0.8,2.2l7.3,18.4c0.6,1.4,0.9,2.4,0.9,3.1c0,0.7-0.3,1.3-0.8,1.8s-1.2,0.8-1.9,0.8c-0.4,0-0.8-0.1-1.1-0.2
		c-0.3-0.2-0.6-0.4-0.8-0.7s-0.4-0.7-0.7-1.3S784,221.8,783.8,221.3z M772.7,213.4h8.3l-4.2-11.8L772.7,213.4z"/>
	<path class="st2" d="M436.3,222l-1.3-3.6h-11.3l-1.3,3.7c-0.5,1.4-1,2.4-1.3,2.9c-0.4,0.5-1,0.8-1.8,0.8c-0.7,0-1.3-0.3-1.9-0.8
		c-0.5-0.5-0.8-1.1-0.8-1.8c0-0.4,0.1-0.8,0.2-1.2s0.3-1,0.6-1.7l7.1-18.5c0.2-0.5,0.4-1.2,0.7-1.9s0.6-1.4,0.9-1.9
		c0.3-0.5,0.7-0.9,1.3-1.2c0.5-0.3,1.2-0.5,1.9-0.5c0.8,0,1.4,0.2,2,0.5c0.5,0.3,0.9,0.7,1.3,1.2c0.3,0.5,0.6,1,0.8,1.5
		c0.2,0.6,0.5,1.3,0.8,2.2l7.3,18.4c0.6,1.4,0.9,2.4,0.9,3.1c0,0.7-0.3,1.3-0.8,1.8s-1.2,0.8-1.9,0.8c-0.4,0-0.8-0.1-1.1-0.2
		c-0.3-0.2-0.6-0.4-0.8-0.7s-0.4-0.7-0.7-1.3S436.4,222.5,436.3,222z M425.1,214.1h8.3l-4.2-11.8L425.1,214.1z"/>
</g>
<path class="st1" d="M191.4,23.2h-78.5c7.1,4,13.6,8.9,19.4,14.6l0,0c0,0,4.8,4.7,7.4,3.2c2.6-1.5,6.4-3.8,6.4-3.8
	c2.9-1.8,6.7-0.8,8.5,2.1l11.1,18.8c1.8,3,0.8,6.8-2.1,8.5l-6.4,3.8c-2.6,1.5-0.7,8.1-0.7,8.1l0,0c2.3,8.1,3.5,16.4,3.6,24.7l0,0
	c0,0,0,6.8,3,7.5s7.2,1.8,7.2,1.8c3.3,0.9,5.3,4.2,4.5,7.5l-5.3,21.2c-0.8,3.3-4.2,5.3-7.5,4.5l0,0l-7.2-1.8c-2.7-0.7-5.5,4.1-6.1,5
	c-4,7.4-9.1,14.2-14.9,20.2l0,0c0,0-4.7,4.8-3.2,7.5l3.8,6.5c1.8,3,0.8,6.8-2.1,8.5l-18.7,11.2c-2.9,1.8-6.7,0.8-8.4-2.1l0,0
	c0,0-2.3-3.8-3.8-6.5c-1.5-2.6-8-0.7-8-0.7l0,0c-8,2.3-16.3,3.6-24.6,3.6l0,0c0,0-6.8,0-7.5,3c-0.8,3-1.8,7.3-1.8,7.3
	c-0.8,3.3-4.1,5.4-7.5,4.5l0,0l-21.1-5.4c-3.3-0.9-5.3-4.2-4.5-7.5c0,0,1.1-4.4,1.8-7.3c0.7-2.9-5.2-6.2-5.2-6.2l0,0
	c-6.3-3.5-12.2-7.8-17.5-12.6v37.5c0,13.9,11.2,25.2,25.1,25.2l0,0h161.1c13.9,0,25.1-11.3,25.1-25.2l0,0V48.5
	C216.5,34.6,205.3,23.3,191.4,23.2z"/>
<path class="st2" d="M104.9,54.8c-6.6-5-14.2-8.7-22.2-10.7C49.6,35.7,16,55.8,7.6,89c-3.2,12.6-2.4,25.9,2.4,38
	C29.8,84.3,80.2,62.9,104.9,54.8"/>
<path class="st2" d="M19.4,143.2c8.3,10.4,19.9,17.9,32.9,21.2c33.1,8.4,66.7-11.7,75.1-44.9c3.2-12.7,2.3-26.1-2.6-38.3
	C60.6,92.6,27.5,132.2,19.4,143.2"/>
</svg>
